<svg xmlns="http://www.w3.org/2000/svg" width="30" height="30" viewBox="0 0 30 30">
  <g id="Layer_2" data-name="Layer 2" transform="translate(0.455 0.454)">
    <g id="invisible_box" data-name="invisible box">
      <rect id="Rectangle_35" data-name="Rectangle 35" width="30" height="30" transform="translate(-0.455 -0.454)" fill="none"/>
    </g>
    <g id="icons_Q2" data-name="icons Q2" transform="translate(3.593 3.003)">
      <g id="Group_80" data-name="Group 80">
        <path id="Path_28" data-name="Path 28" d="M22.512,23.361a1.261,1.261,0,0,0-1.621-.12,1.141,1.141,0,0,0-.12,1.8L23.532,27.8H7.2a1.2,1.2,0,0,0,0,2.4H23.532L20.77,32.967a1.141,1.141,0,0,0,.12,1.8,1.261,1.261,0,0,0,1.621-.12l4.743-4.8a1.141,1.141,0,0,0,0-1.681Z" transform="translate(-5.991 -12.193)" fill="#403e56"/>
        <path id="Path_29" data-name="Path 29" d="M11.1,16.649a1.261,1.261,0,0,0,1.621.12,1.141,1.141,0,0,0,.12-1.8l-2.762-2.762H26.408a1.2,1.2,0,0,0,0-2.4H10.077l2.762-2.762a1.141,1.141,0,0,0-.12-1.8,1.261,1.261,0,0,0-1.621.12l-4.743,4.8a1.141,1.141,0,0,0,0,1.681Z" transform="translate(-5.985 -5.001)" fill="#403e56"/>
      </g>
    </g>
  </g>
</svg>
