<svg xmlns="http://www.w3.org/2000/svg" width="20.043" height="25.053" viewBox="0 0 20.043 25.053">
  <g id="headset" transform="translate(-4.5)">
    <path id="Path_44" data-name="Path 44" d="M14.521,1.67A8.351,8.351,0,0,0,6.17,10.021v7.516H4.5V10.021a10.021,10.021,0,1,1,20.043,0v7.516h-1.67V10.021A8.351,8.351,0,0,0,14.521,1.67Z" fill="#403e56" fill-rule="evenodd"/>
    <path id="Path_45" data-name="Path 45" d="M19.532,17.42a1.67,1.67,0,0,1,1.67-1.67h3.34v6.681a1.67,1.67,0,0,1-1.67,1.67H21.2a1.67,1.67,0,0,1-1.67-1.67Zm-10.021,0a1.67,1.67,0,0,0-1.67-1.67H4.5v6.681A1.67,1.67,0,0,0,6.17,24.1H7.84a1.67,1.67,0,0,0,1.67-1.67Z" transform="translate(0 -4.058)" fill="#403e56"/>
    <path id="Path_46" data-name="Path 46" d="M26.9,19.125a.835.835,0,0,1,.835.835v5.011a4.176,4.176,0,0,1-4.176,4.176H17.71a.835.835,0,0,1,0-1.67h5.846a2.505,2.505,0,0,0,2.505-2.505V19.96A.835.835,0,0,1,26.9,19.125Z" transform="translate(-3.189 -4.928)" fill="#403e56" fill-rule="evenodd"/>
    <path id="Path_47" data-name="Path 47" d="M14.625,30.92a1.67,1.67,0,0,1,1.67-1.67h1.67a1.67,1.67,0,1,1,0,3.34H16.3A1.67,1.67,0,0,1,14.625,30.92Z" transform="translate(-2.609 -7.537)" fill="#403e56"/>
  </g>
</svg>
