<svg id="Layer_2" data-name="Layer 2" xmlns="http://www.w3.org/2000/svg" width="30" height="30" viewBox="0 0 30 30">
  <g id="invisible_box" data-name="invisible box">
    <rect id="Rectangle_772" data-name="Rectangle 772" width="30" height="30" fill="none"/>
  </g>
  <g id="Layer_6" data-name="Layer 6" transform="translate(1.625 1.25)">
    <g id="Group_2177" data-name="Group 2177">
      <path id="Path_76" data-name="Path 76" d="M17.036,9.375a3.688,3.688,0,0,1,2.875-1.062,4.75,4.75,0,0,1,3.25,1.375c1.813,1.75,2.125,4.5.625,6.063a1.313,1.313,0,0,0,0,1.813,1.5,1.5,0,0,0,.875.313,1.125,1.125,0,0,0,.875-.375,6.482,6.482,0,0,0,.813-7.688h.438A3.813,3.813,0,0,0,29.6,8.625a3.938,3.938,0,0,0-.125-5.563A4.062,4.062,0,0,0,26.786,2a4.125,4.125,0,0,0-2.875,1.187,3.937,3.937,0,0,0-1,3.312,7,7,0,0,0-2.937-.687,5.938,5.938,0,0,0-4.75,1.875,1.25,1.25,0,1,0,1.813,1.688Zm8.688-4.437A1.5,1.5,0,0,1,26.786,4.5a1.4,1.4,0,0,1,1,2.375,1.187,1.187,0,0,1-1,.437,1.438,1.438,0,0,1-1-.375,1.375,1.375,0,0,1-.062-2Z" transform="translate(-7.162 -2)" fill="#403e56"/>
      <path id="Path_77" data-name="Path 77" d="M14.35,31.448A4.361,4.361,0,0,1,11.6,26.01c.625-2.437,2.813-4.125,4.938-3.562a1.25,1.25,0,0,0,1.5-.937,1.187,1.187,0,0,0-.875-1.5A6.5,6.5,0,0,0,10.1,23.2a3.938,3.938,0,0,0-2.688-2.25l-.875-.125a3.937,3.937,0,0,0-3.812,3A3.875,3.875,0,0,0,5.6,28.573l.937.125a3.875,3.875,0,0,0,2.438-.875,6.563,6.563,0,0,0,4.813,6.063h.25a1.25,1.25,0,0,0,1.25-.937,1.188,1.188,0,0,0-.937-1.5ZM7.913,25.073A1.437,1.437,0,0,1,6.538,26.2H6.163a1.426,1.426,0,0,1,.375-2.812H6.85a1.313,1.313,0,0,1,.875.625A1.562,1.562,0,0,1,7.913,25.073Z" transform="translate(-2.6 -8.698)" fill="#403e56"/>
      <path id="Path_78" data-name="Path 78" d="M33.944,29.032a7.437,7.437,0,0,0,2.063-2.125,6.125,6.125,0,0,0,.75-5.062,1.237,1.237,0,1,0-2.375.688,3.5,3.5,0,0,1-.5,3,5.125,5.125,0,0,1-2.812,2.125,4.357,4.357,0,0,1-5.562-2.5,1.266,1.266,0,1,0-2.437.688,6.563,6.563,0,0,0,6.313,4.5,3.937,3.937,0,0,0,3.125,6.25,3.563,3.563,0,0,0,1.125-.187,3.937,3.937,0,0,0,.313-7.375Zm-1,5h-.437a1.5,1.5,0,0,1-1.375-.937,1.563,1.563,0,0,1,1-1.812h.375a1.437,1.437,0,0,1,1.375,1.063,1.375,1.375,0,0,1-.937,1.688Z" transform="translate(-10.257 -9.094)" fill="#403e56"/>
    </g>
  </g>
</svg>
