<svg xmlns="http://www.w3.org/2000/svg" width="18.292" height="18.354" viewBox="0 0 18.292 18.354">
  <g id="bank" transform="translate(-1.125 -1.01)">
    <path id="Path_36" data-name="Path 36" d="M9.957,1.01,1.125,5.262V7.475H19.417V5.251ZM18.2,6.255H2.344V6.029L9.975,2.355,18.2,6.04Z" fill="#403e56"/>
    <path id="Path_37" data-name="Path 37" d="M3.375,28.688H19.228v1.219H3.375Z" transform="translate(-1.031 -12.677)" fill="#403e56"/>
    <path id="Path_38" data-name="Path 38" d="M1.125,32.625H19.417v1.219H1.125Z" transform="translate(0 -14.48)" fill="#403e56"/>
    <path id="Path_39" data-name="Path 39" d="M3.938,15.188H5.157v6.1H3.938Z" transform="translate(-1.288 -6.494)" fill="#403e56"/>
    <path id="Path_40" data-name="Path 40" d="M29.813,15.188h1.219v6.1H29.813Z" transform="translate(-13.139 -6.494)" fill="#403e56"/>
    <path id="Path_41" data-name="Path 41" d="M23.063,15.188h1.219v6.1H23.063Z" transform="translate(-10.048 -6.494)" fill="#403e56"/>
    <path id="Path_42" data-name="Path 42" d="M10.688,15.188h1.219v6.1H10.688Z" transform="translate(-4.38 -6.494)" fill="#403e56"/>
    <path id="Path_43" data-name="Path 43" d="M16.875,15.188h1.219v6.1H16.875Z" transform="translate(-7.214 -6.494)" fill="#403e56"/>
  </g>
</svg>
