<svg id="icons_Q2" data-name="icons Q2" xmlns="http://www.w3.org/2000/svg" width="20" height="20" viewBox="0 0 20 20">
  <path id="Path_48" data-name="Path 48" d="M12,2a9.955,9.955,0,1,0,7.085,2.916A10,10,0,0,0,12,2Zm7.318,6.364H17.091a12.637,12.637,0,0,0-1.364-3.636,8.409,8.409,0,0,1,3.591,3.636ZM20.182,12a7.955,7.955,0,0,1-.227,1.818H17.364c.045-.591.091-1.182.091-1.818s-.045-1.227-.091-1.818h2.591A7.955,7.955,0,0,1,20.182,12ZM3.818,12a7.955,7.955,0,0,1,.227-1.818H6.636c-.045.591-.091,1.182-.091,1.818s.045,1.227.091,1.818H4.045A7.955,7.955,0,0,1,3.818,12Zm4.545,0c0-.636.045-1.227.091-1.818h2.636v3.636H8.455C8.409,13.227,8.364,12.636,8.364,12Zm4.545-7.864a5.318,5.318,0,0,1,1.364,1.682,9.864,9.864,0,0,1,.955,2.545H12.909Zm-1.818,0V8.364H8.773a9.864,9.864,0,0,1,.955-2.545,5.318,5.318,0,0,1,1.364-1.682Zm0,11.5v4.227a5.318,5.318,0,0,1-1.364-1.682,9.864,9.864,0,0,1-.955-2.545Zm1.818,4.227V15.636h2.318a9.864,9.864,0,0,1-.955,2.545,5.318,5.318,0,0,1-1.364,1.682Zm0-6.045V10.182h2.636c.045.591.091,1.182.091,1.818s-.045,1.227-.091,1.818ZM8.273,4.727A12.636,12.636,0,0,0,6.909,8.364H4.682A8.409,8.409,0,0,1,8.273,4.727ZM4.682,15.636H6.909a12.636,12.636,0,0,0,1.364,3.636,8.409,8.409,0,0,1-3.591-3.636Zm11.046,3.636a12.636,12.636,0,0,0,1.364-3.636h2.227A8.409,8.409,0,0,1,15.727,19.273Z" transform="translate(-2 -2)" fill="#403e56"/>
</svg>
