<svg xmlns="http://www.w3.org/2000/svg" width="20.683" height="20.683" viewBox="0 0 20.683 20.683">
  <path id="issue" d="M10.341,20.683a10.144,10.144,0,0,1-4.019-.818,10.119,10.119,0,0,1-5.5-5.5,10.282,10.282,0,0,1,0-8.039,10.119,10.119,0,0,1,5.5-5.5,10.282,10.282,0,0,1,8.039,0,10.119,10.119,0,0,1,5.5,5.5,10.282,10.282,0,0,1,0,8.039,10.119,10.119,0,0,1-5.5,5.5,10.144,10.144,0,0,1-4.019.818Zm0-18.1a7.6,7.6,0,0,0-3.888,1.04A7.7,7.7,0,0,0,3.625,6.454a7.787,7.787,0,0,0,0,7.776,7.7,7.7,0,0,0,2.828,2.828,7.787,7.787,0,0,0,7.776,0,7.7,7.7,0,0,0,2.828-2.828,7.787,7.787,0,0,0,0-7.776,7.7,7.7,0,0,0-2.828-2.828A7.6,7.6,0,0,0,10.341,2.585ZM10.988,16.8H9.695a.655.655,0,0,1-.646-.646V14.866a.655.655,0,0,1,.646-.646h1.293a.655.655,0,0,1,.646.646v1.293a.655.655,0,0,1-.646.646Zm0-3.878H9.695a.655.655,0,0,1-.646-.646V4.524a.655.655,0,0,1,.646-.646h1.293a.655.655,0,0,1,.646.646V12.28a.655.655,0,0,1-.646.646Z" fill="#403e56"/>
</svg>
