<svg xmlns="http://www.w3.org/2000/svg" width="24" height="24" viewBox="0 0 24 24">
  <g id="Layer_2" data-name="Layer 2" transform="translate(0.041 0.041)">
    <g id="invisible_box" data-name="invisible box">
      <rect id="Rectangle_15" data-name="Rectangle 15" width="24" height="24" transform="translate(-0.041 -0.041)" fill="none"/>
    </g>
    <g id="Q3_icons" data-name="Q3 icons" transform="translate(1.041 0.991)">
      <path id="Path_5" data-name="Path 5" d="M22.973,4.536V7.974a1,1,0,0,1-1,1H18.489a1,1,0,0,1-1-1.146,1.046,1.046,0,0,1,1.046-.847h1.146a8.969,8.969,0,0,0-15.6,5.083,1,1,0,0,1-1,.9h0a1,1,0,0,1-1-1.1A10.962,10.962,0,0,1,20.98,5.433V4.486a1,1,0,0,1,1.146-1,1.046,1.046,0,0,1,.847,1.046Z" transform="translate(-2.09 -1.989)" fill="#fff"/>
      <path id="Path_6" data-name="Path 6" d="M4,32.421V28.983a1,1,0,0,1,1-1H8.484a1,1,0,0,1,1,1.146,1.046,1.046,0,0,1-1.046.847H7.289a8.969,8.969,0,0,0,15.6-5.083,1,1,0,0,1,1-.9h0a1,1,0,0,1,1,1.1A10.962,10.962,0,0,1,5.993,31.524v.947a1,1,0,0,1-1.146,1A1.046,1.046,0,0,1,4,32.421Z" transform="translate(-3.048 -13.032)" fill="#fff"/>
      <path id="Path_7" data-name="Path 7" d="M20.826,16.481c-1.744-.349-1.744-.648-1.744-.9s.1-.3.249-.448a1.694,1.694,0,0,1,.9-.2,3.139,3.139,0,0,1,1.644.448.9.9,0,0,0,1.345-.249.947.947,0,0,0-.2-1.4,4.534,4.534,0,0,0-1.545-.6V12a1,1,0,0,0-1.993,0v1.1a2.684,2.684,0,0,0-2.491,2.591c0,1.345,1.644,2.442,3.239,2.741s1.644.648,1.644.9-.548.7-1.246.7h0a3.339,3.339,0,0,1-2.043-.648,1,1,0,0,0-1.4.3.9.9,0,0,0,.149,1.3,5.431,5.431,0,0,0,2.143.9v1.1a1,1,0,1,0,1.993,0v-1.1a3.139,3.139,0,0,0,1.495-.648,2.442,2.442,0,0,0,1-1.993h0C23.965,17.378,22.271,16.78,20.826,16.481Z" transform="translate(-9.559 -6.51)" fill="#fff"/>
    </g>
  </g>
</svg>
