<svg xmlns="http://www.w3.org/2000/svg" width="18.349" height="20.97" viewBox="0 0 18.349 20.97">
  <path id="conditional-flow" d="M3.289,3.932H17.05a1.277,1.277,0,0,1,.922.379,1.249,1.249,0,0,1,.389.932V18.349q0,1-1.362,1.812a5.076,5.076,0,0,1-2.57.809H2.633A2.527,2.527,0,0,1,.78,20.2a2.523,2.523,0,0,1-.768-1.853V2.621A2.527,2.527,0,0,1,.78.768,2.523,2.523,0,0,1,2.633,0H17.05a1.26,1.26,0,0,1,.922.389,1.271,1.271,0,0,1,.389.932,1.237,1.237,0,0,1-.389.922,1.277,1.277,0,0,1-.922.379H3.289a.652.652,0,0,0-.461,1.116.63.63,0,0,0,.461.195ZM7.876,19a.664.664,0,0,0,.655.655H9.842A.664.664,0,0,0,10.5,19V17.693a.664.664,0,0,0-.655-.655H8.531a.664.664,0,0,0-.655.655V19ZM3.944,10.485a.664.664,0,0,0,.655.655H5.91a.664.664,0,0,0,.655-.655q0-.553.768-.932a4.145,4.145,0,0,1,1.853-.379,4.071,4.071,0,0,1,1.853.389q.768.389.768.922,0,.553-.768.932a4.145,4.145,0,0,1-1.853.379,1.329,1.329,0,0,0-1.311,1.311v1.966a.664.664,0,0,0,.655.655H9.842a.664.664,0,0,0,.655-.655v-.778A5.434,5.434,0,0,0,13.323,12.9a3.273,3.273,0,0,0,1.106-2.416A3.387,3.387,0,0,0,12.893,7.7,6.024,6.024,0,0,0,9.186,6.553a7.557,7.557,0,0,0-2.038.277,6.885,6.885,0,0,0-1.679.686,5,5,0,0,0-1.106.86,1.272,1.272,0,0,0-.42.8v1.311Z" transform="translate(-0.012)" fill="#403e56"/>
</svg>
