<svg xmlns="http://www.w3.org/2000/svg" width="7.49" height="18.653" viewBox="0 0 7.49 18.653">
  <path id="about-variant" d="M18.6,6A1.748,1.748,0,1,0,20.35,7.748,1.748,1.748,0,0,0,18.6,6m-.42,5.559c-1.387.117-5.175,3.135-5.175,3.135-.233.175-.163.163.023.489s.163.338.385.186.618-.4,1.259-.793c2.471-1.585.4,2.075-.664,8.24-.42,3.054,2.331,1.48,3.042,1.014s2.576-1.748,2.762-1.876c.256-.175.07-.315-.128-.606-.14-.2-.28-.058-.28-.058-.758.5-2.144,1.55-2.331.886-.221-.664,1.2-5.221,1.981-8.356.128-.746.478-2.378-.874-2.261Z" transform="translate(-12.86 -6)" fill="#403e56"/>
</svg>
