<svg id="Layer_2" data-name="Layer 2" xmlns="http://www.w3.org/2000/svg" width="33" height="32" viewBox="0 0 33 32">
  <g id="invisible_box" data-name="invisible box">
    <rect id="Rectangle_13" data-name="Rectangle 13" width="33" height="32" fill="none"/>
  </g>
  <g id="icons_Q2" data-name="icons Q2" transform="translate(3.946 1.973)">
    <path id="Path_4" data-name="Path 4" d="M18.337,3a7.391,7.391,0,0,0-7.54,7.234,7.391,7.391,0,0,0,7.54,7.234,7.391,7.391,0,0,0,7.54-7.234A7.391,7.391,0,0,0,18.337,3Zm0,11.837s-4.8-2.061-4.8-4.6a4.7,4.7,0,0,1,4.8-4.6,4.7,4.7,0,0,1,4.8,4.6c0,2.542-4.8,4.6-4.8,4.6Zm11.721,8.549A22.119,22.119,0,0,0,18.337,20.1,22.694,22.694,0,0,0,6.617,23.321L6,23.715v5.59a1.344,1.344,0,0,0,1.371,1.315H29.3a1.344,1.344,0,0,0,1.371-1.315v-5.59Zm-2.125,4.6H8.742V25.162a20.107,20.107,0,0,1,9.6-2.433,19.461,19.461,0,0,1,9.6,2.5Z" transform="translate(-6 -3)" fill="#403e56"/>
  </g>
</svg>
