<svg xmlns="http://www.w3.org/2000/svg" width="30" height="30" viewBox="0 0 30 30">
  <g id="Layer_2" data-name="Layer 2" transform="translate(-0.119 -0.119)">
    <g id="invisible_box" data-name="invisible box">
      <rect id="Rectangle_773" data-name="Rectangle 773" width="30" height="30" transform="translate(0.119 0.119)" fill="none"/>
    </g>
    <g id="icons_Q2" data-name="icons Q2" transform="translate(1.89 1.89)">
      <path id="Path_79" data-name="Path 79" d="M29.018,7.41a2.079,2.079,0,0,0-1.449-.63H8.355L8.1,4.638A1.89,1.89,0,0,0,6.213,3H4.26a1.26,1.26,0,0,0,0,2.52H5.646L7.662,22.466a3.717,3.717,0,0,0-1.827,3.213,3.78,3.78,0,0,0,3.78,3.78,3.906,3.906,0,0,0,3.591-2.52h6.678a3.906,3.906,0,0,0,3.591,2.52,3.78,3.78,0,0,0,0-7.56,3.906,3.906,0,0,0-3.591,2.52H13.205a3.78,3.78,0,0,0-3.087-2.457l-.126-1.323H25.931A1.89,1.89,0,0,0,27.758,19l1.7-9.953a2.268,2.268,0,0,0-.441-1.638ZM24.734,25.679a1.26,1.26,0,1,1-1.26-1.26A1.26,1.26,0,0,1,24.734,25.679Zm-13.859,0a1.26,1.26,0,1,1-1.26-1.26A1.26,1.26,0,0,1,10.875,25.679Zm14.489-7.56H9.678L8.67,9.3H26.813Z" transform="translate(-3 -3)" fill="#403e56"/>
    </g>
  </g>
</svg>
