<svg xmlns="http://www.w3.org/2000/svg" width="20" height="19.815" viewBox="0 0 20 19.815">
  <path id="stars" d="M0,12.4a2.449,2.449,0,0,0,1.713-.783,2.445,2.445,0,0,0,.7-1.747,2.446,2.446,0,0,0,.7,1.747,2.446,2.446,0,0,0,1.713.783,2.449,2.449,0,0,0-1.713.783,2.443,2.443,0,0,0-.7,1.747,2.446,2.446,0,0,0-.7-1.747A2.447,2.447,0,0,0,0,12.4ZM2.414,4.924A4.79,4.79,0,0,0,5.747,3.4,4.744,4.744,0,0,0,7.114,0,4.736,4.736,0,0,0,8.487,3.4a4.805,4.805,0,0,0,3.338,1.523,4.8,4.8,0,0,0-2.374.735A4.945,4.945,0,0,0,7.743,7.45a4.849,4.849,0,0,0-.628,2.419A4.772,4.772,0,0,0,5.747,6.453,4.784,4.784,0,0,0,2.414,4.924ZM5.859,16.107A3.593,3.593,0,0,0,8.37,14.963,3.575,3.575,0,0,0,9.4,12.4a3.71,3.71,0,0,0,3.533,3.708A3.709,3.709,0,0,0,9.4,19.815,3.576,3.576,0,0,0,8.37,17.251a3.59,3.59,0,0,0-2.511-1.143Zm7.076-4.924a3.565,3.565,0,0,0,2.5-1.139,3.59,3.59,0,0,0,1.022-2.569A3.718,3.718,0,0,0,20,11.182a3.6,3.6,0,0,0-2.511,1.139,3.559,3.559,0,0,0-1.032,2.559,3.693,3.693,0,0,0-3.523-3.7Z" fill="#403e56"/>
</svg>
