<svg xmlns="http://www.w3.org/2000/svg" width="30" height="30" viewBox="0 0 30 30">
  <g id="Layer_2" data-name="Layer 2" transform="translate(0 0)">
    <g id="invisible_box" data-name="invisible box">
      <rect id="Rectangle_766" data-name="Rectangle 766" width="30" height="30" transform="translate(0 0)" fill="none"/>
    </g>
    <g id="Health_Icons" data-name="Health Icons" transform="translate(1.305 2.5)">
      <g id="Group_2171" data-name="Group 2171">
        <path id="Path_63" data-name="Path 63" d="M29.408,11.75v-.187L26.283,4.75A1.25,1.25,0,0,0,25.158,4H6.408a1.25,1.25,0,0,0-1.125.75L2.22,11.563v.188A3.75,3.75,0,0,0,2.845,15,4.313,4.313,0,0,0,4.6,16.25V27.125A1.812,1.812,0,0,0,6.47,29H25.158a1.813,1.813,0,0,0,1.875-1.875V16.25A4.312,4.312,0,0,0,28.783,15a3.75,3.75,0,0,0,.625-3.25ZM4.533,12.5l2.688-6H24.345l2.688,6a1.188,1.188,0,0,1-.25.938A1.312,1.312,0,0,1,25.658,14H25.1a1.375,1.375,0,0,1-1.438-1.312,1.25,1.25,0,1,0-2.5,0A1.313,1.313,0,0,1,19.783,14H18.408a1.312,1.312,0,0,1-1.375-1.313,1.25,1.25,0,1,0-2.5,0A1.312,1.312,0,0,1,13.158,14H11.783a1.312,1.312,0,0,1-1.375-1.313,1.25,1.25,0,1,0-2.5,0A1.375,1.375,0,0,1,6.47,14H5.908a1.312,1.312,0,0,1-1.125-.562A1.187,1.187,0,0,1,4.533,12.5Zm18.125,14V18.375H18.283V26.5H7.033V16.438A3.687,3.687,0,0,0,9.158,15.5a3.938,3.938,0,0,0,2.625,1h1.375a3.937,3.937,0,0,0,2.625-1,3.937,3.937,0,0,0,2.625,1h1.375a3.938,3.938,0,0,0,2.625-1,3.688,3.688,0,0,0,2.125.938V26.5Z" transform="translate(-2.087 -4)" fill="#403e56"/>
        <rect id="Rectangle_767" data-name="Rectangle 767" width="7" height="6" transform="translate(6.695 14.5)" fill="#403e56"/>
      </g>
    </g>
  </g>
</svg>
